ply
format ascii 1.0
element vertex 92
property float x
property float y
property float z
property uchar red
property uchar green
property uchar blue
element edge 24
property int vertex1
property int vertex2
property uchar red
property uchar green
property uchar blue
end_header
-0.276235 -0.072903 10.463818 1 1 1
-0.248433 0.348518 10.228542 0 1 1
-0.068112 -0.339869 10.328775 39 39 40
0.032072 0.458861 10.574643 47 47 47
-0.081152 0.124921 10.515867 151 151 151
-0.276465 -0.026552 10.487119 9 8 9
-0.051092 0.190900 10.517520 114 114 114
0.003182 -0.164941 10.531274 16 16 16
0.017872 -0.058991 10.538473 35 35 36
-0.132477 0.358651 10.341095 50 50 50
-0.006978 -0.193115 10.572888 20 20 21
0.002851 -0.091854 10.554188 18 18 19
-0.241244 -0.035728 10.524259 28 28 28
0.052612 -0.063258 10.620036 10 10 10
-0.111016 -0.091166 10.685154 25 26 26
-0.236184 0.225437 10.254403 30 30 30
-0.148212 -0.096726 10.717417 91 91 91
-0.042761 0.389337 10.510206 68 68 68
0.036724 -0.414198 10.537480 19 19 19
0.224366 0.475562 10.921925 43 43 43
0.236713 0.345433 10.924076 21 21 21
-0.080161 -0.010570 10.580687 65 65 65
-0.008980 -0.215090 10.584342 49 49 49
-0.124966 -0.400980 10.180239 37 37 37
-0.123663 0.230136 10.339571 25 25 25
-0.073756 -0.115254 10.710331 82 82 82
-0.162022 -0.305434 10.191607 55 55 55
-0.141451 -0.114670 10.729853 74 75 75
-0.283565 0.027385 10.463821 53 53 54
-0.085016 -0.086303 10.692744 90 91 91
0.050523 -0.017729 10.632191 75 75 75
-0.055595 0.052931 10.525114 65 65 65
0.060816 -0.302558 10.609365 30 30 30
-0.209922 0.426842 10.162411 88 88 89
-0.037845 0.099266 10.521632 91 91 91
-0.190796 0.294409 10.193624 64 64 64
-0.030424 -0.064673 10.545635 66 67 66
0.068973 0.113649 10.481887 58 58 58
-0.072187 0.100624 10.509755 82 83 82
0.004387 0.124544 10.550245 83 83 83
-0.127532 -0.142688 10.767175 76 76 76
0.285199 -0.353160 10.943624 99 99 100
-0.110445 -0.048462 10.790511 44 44 44
0.053949 -0.163598 10.656093 75 75 75
-0.050517 -0.119084 10.697027 82 82 82
-0.183012 -0.343851 10.227338 63 63 63
-0.007988 0.409930 10.551316 102 103 103
0.212948 0.311680 10.939125 88 88 88
0.026674 0.174968 10.594031 85 85 85
-0.002611 0.176312 10.560792 91 91 91
-0.019918 0.025706 10.574671 119 120 119
0.135071 0.389239 10.764117 63 62 63
-0.186380 -0.139877 10.738636 109 110 109
-0.208855 0.117190 10.699953 26 26 26
0.275662 -0.223724 10.954227 76 76 76
0.069132 0.183397 10.460535 75 75 75
-0.006960 0.156675 10.547969 75 75 75
-0.228500 0.389256 10.198606 49 49 49
-0.114501 0.040134 10.815924 139 139 139
0.047028 0.216762 10.625697 123 123 123
0.022370 0.432126 10.563329 180 180 181
-0.046262 0.121979 10.533053 114 114 114
0.186277 0.275556 10.940420 140 141 141
-0.023974 0.216114 10.520374 77 76 77
-0.149200 -0.434793 10.190663 164 165 165
0.102589 0.016494 10.483833 66 66 66
0.082763 0.032914 10.499948 86 86 87
0.185821 -0.310835 10.807180 52 51 52
0.150254 -0.011495 10.501968 57 57 57
-0.108212 -0.177138 10.769512 45 45 45
0.071071 0.028907 10.485107 23 23 23
0.052858 0.329947 10.688761 48 47 47
-0.310165 -0.130938 10.430187 37 37 37
0.194829 -0.441793 10.799094 13 13 13
-0.350737 -0.126510 10.394637 22 22 22
-0.141473 -0.270228 10.135286 17 17 17
0.108363 0.095901 10.530078 21 21 21
-0.000000 -0.000000 -0.000000 255 0 0
0.222734 0.222734 3.167279 255 0 0
-0.222734 0.222734 3.167279 255 0 0
0.222734 -0.222734 3.167279 255 0 0
-0.222734 -0.222734 3.167279 255 0 0
-0.839003 -0.025312 0.543537 0 255 0
-0.353635 0.205748 3.680719 0 255 0
-0.797549 0.204370 3.717873 0 255 0
-0.352173 -0.239717 3.681674 0 255 0
-0.796087 -0.241095 3.718828 0 255 0
-1.888492 -0.056697 1.118213 0 0 255
-1.050049 0.185150 4.179161 0 0 255
-1.486866 0.183635 4.266517 0 0 255
-1.048057 -0.260308 4.181396 0 0 255
-1.484873 -0.261823 4.268752 0 0 255
77 78 255 0 0
77 79 255 0 0
77 80 255 0 0
77 81 255 0 0
78 79 0 0 0
79 81 255 0 0
81 80 255 0 0
80 78 255 0 0
82 83 0 255 0
82 84 0 255 0
82 85 0 255 0
82 86 0 255 0
83 84 0 0 0
84 86 0 255 0
86 85 0 255 0
85 83 0 255 0
87 88 0 0 255
87 89 0 0 255
87 90 0 0 255
87 91 0 0 255
88 89 0 0 0
89 91 0 0 255
91 90 0 0 255
90 88 0 0 255
