ply
format ascii 1.0
element vertex 92
property float x
property float y
property float z
property uchar red
property uchar green
property uchar blue
element edge 24
property int vertex1
property int vertex2
property uchar red
property uchar green
property uchar blue
end_header
-0.282503 -0.074557 10.893042 1 1 1
-0.254070 0.356425 11.133656 0 1 1
-0.069658 -0.347580 11.031149 39 39 40
0.032800 0.469272 10.779702 47 47 47
-0.082993 0.127755 10.839812 151 151 151
-0.282738 -0.027155 10.869212 9 8 9
-0.052252 0.195231 10.838122 114 114 114
0.003254 -0.168684 10.824056 16 16 16
0.018278 -0.060329 10.816694 35 35 36
-0.135483 0.366788 11.018550 50 50 50
-0.007137 -0.197496 10.781498 20 20 21
0.002916 -0.093938 10.800622 18 18 19
-0.246717 -0.036539 10.831230 28 28 28
0.053806 -0.064693 10.733280 10 10 10
-0.113535 -0.093235 10.666685 25 26 26
-0.241543 0.230552 11.107208 30 30 30
-0.151575 -0.098920 10.633689 91 91 91
-0.043731 0.398171 10.845602 68 68 68
0.037558 -0.423595 10.817709 19 19 19
0.229457 0.486352 10.424542 43 43 43
0.242084 0.353271 10.422342 21 21 21
-0.081980 -0.010810 10.773522 65 65 65
-0.009184 -0.219970 10.769784 49 49 49
-0.127802 -0.410077 11.183055 37 37 37
-0.126469 0.235357 11.020108 25 25 25
-0.075430 -0.117869 10.640937 82 82 82
-0.165698 -0.312364 11.171429 55 55 55
-0.144661 -0.117271 10.620972 74 75 75
-0.289999 0.028007 10.893040 53 53 54
-0.086944 -0.088261 10.658922 90 91 91
0.051670 -0.018131 10.720849 75 75 75
-0.056856 0.054132 10.830356 65 65 65
0.062196 -0.309423 10.744193 30 30 30
-0.214685 0.436526 11.201288 88 88 89
-0.038703 0.101518 10.833917 91 91 91
-0.195125 0.301089 11.169367 64 64 64
-0.031114 -0.066140 10.809369 66 67 66
0.070537 0.116228 10.874563 58 58 58
-0.073825 0.102907 10.846063 82 83 82
0.004487 0.127370 10.804654 83 83 83
-0.130425 -0.145926 10.582802 76 76 76
0.291670 -0.361173 10.402351 99 99 100
-0.112951 -0.049562 10.558937 44 44 44
0.055173 -0.167310 10.696405 75 75 75
-0.051663 -0.121786 10.654542 82 82 82
-0.187164 -0.351652 11.134888 63 63 63
-0.008169 0.419231 10.803559 102 103 103
0.217779 0.318751 10.406952 88 88 88
0.027279 0.178937 10.759875 85 85 85
-0.002670 0.180312 10.793868 91 91 91
-0.020370 0.026290 10.779674 119 120 119
0.138136 0.398071 10.585929 63 62 63
-0.190608 -0.143051 10.611989 109 110 109
-0.213594 0.119849 10.651550 26 26 26
0.281917 -0.228800 10.391507 76 76 76
0.070700 0.187558 10.896400 75 75 75
-0.007118 0.160230 10.806982 75 75 75
-0.233684 0.398087 11.164272 49 49 49
-0.117099 0.041045 10.532947 139 139 139
0.048095 0.221680 10.727490 123 123 123
0.022877 0.441931 10.791273 180 180 181
-0.047312 0.124747 10.822236 114 114 114
0.190504 0.281808 10.405627 140 141 141
-0.024518 0.221017 10.835203 77 76 77
-0.152585 -0.444657 11.172395 164 165 165
0.104917 0.016868 10.872574 66 66 66
0.084641 0.033660 10.856092 86 86 87
0.190037 -0.317887 10.541890 52 51 52
0.153663 -0.011756 10.854027 57 57 57
-0.110668 -0.181157 10.580413 45 45 45
0.072683 0.029563 10.871270 23 23 23
0.054057 0.337433 10.662996 48 47 47
-0.317202 -0.133909 10.927436 37 37 37
0.199250 -0.451817 10.550159 13 13 13
-0.358694 -0.129380 10.963793 22 22 22
-0.144683 -0.276359 11.229028 17 17 17
0.110822 0.098077 10.825279 21 21 21
-0.000000 -0.000000 -0.000000 255 0 0
0.227788 0.227788 3.239141 255 0 0
-0.227788 0.227788 3.239141 255 0 0
0.227788 -0.227788 3.239141 255 0 0
-0.227788 -0.227788 3.239141 255 0 0
0.817678 0.053298 0.573204 0 255 0
0.786290 0.264754 3.821296 0 255 0
0.332161 0.263158 3.785062 0 255 0
0.788073 -0.190812 3.819022 0 255 0
0.333944 -0.192408 3.782788 0 255 0
1.897418 0.093426 1.168589 0 0 255
1.493923 0.290993 4.392556 0 0 255
1.046936 0.289307 4.304529 0 0 255
1.496421 -0.164558 4.388597 0 0 255
1.049434 -0.166244 4.300569 0 0 255
77 78 255 0 0
77 79 255 0 0
77 80 255 0 0
77 81 255 0 0
78 79 0 0 0
79 81 255 0 0
81 80 255 0 0
80 78 255 0 0
82 83 0 255 0
82 84 0 255 0
82 85 0 255 0
82 86 0 255 0
83 84 0 0 0
84 86 0 255 0
86 85 0 255 0
85 83 0 255 0
87 88 0 0 255
87 89 0 0 255
87 90 0 0 255
87 91 0 0 255
88 89 0 0 0
89 91 0 0 255
91 90 0 0 255
90 88 0 0 255
