ply
format ascii 1.0
element vertex 40
property float x
property float y
property float z
property uchar red
property uchar green
property uchar blue
element edge 24
property int vertex1
property int vertex2
property uchar red
property uchar green
property uchar blue
end_header
-0.075796 -0.034397 2.467985 1 1 1
-0.032222 -0.109065 2.493825 1 1 1
-0.002179 -0.041568 2.445350 116 117 117
0.031022 -0.062752 2.414850 59 59 59
0.033479 -0.062604 2.413454 115 115 115
-0.029321 -0.027107 2.453429 1 1 1
-0.029072 -0.108928 2.493138 31 32 31
0.022237 -0.083018 2.425389 36 36 36
0.003793 -0.089827 2.456949 1 1 1
-0.030204 -0.077031 2.492552 36 36 36
-0.070392 -0.035628 2.466198 37 37 37
0.002985 -0.062382 2.451348 94 95 94
-0.049854 -0.044525 2.449883 51 52 51
-0.003713 0.053940 2.443504 214 215 215
-0.003618 0.056605 2.444397 50 50 50
-0.032847 0.125599 2.481414 72 73 73
-0.051011 -0.005343 2.453516 60 60 59
-0.068247 -0.008327 2.446325 44 44 44
-0.006896 0.086369 2.445663 45 45 45
-0.065791 -0.008180 2.444929 24 25 24
0.026568 -0.023454 2.447451 47 47 47
-0.007347 -0.006228 2.443048 38 38 38
-0.010824 0.076353 2.442027 23 23 23
0.022343 -0.022664 2.445251 52 52 52
-0.037179 0.061121 2.484451 50 50 50
-0.000000 -0.000000 -0.000000 255 0 0
0.055212 0.055212 0.736156 255 0 0
-0.055212 0.055212 0.736156 255 0 0
0.055212 -0.055212 0.736156 255 0 0
-0.055212 -0.055212 0.736156 255 0 0
-0.994565 -0.080376 -0.066180 0 255 0
-0.671169 -0.004734 0.595421 0 255 0
-0.773806 -0.001920 0.636054 0 255 0
-0.672575 -0.115072 0.599509 0 255 0
-0.775212 -0.112259 0.640142 0 255 0
-1.557167 0.066691 0.010523 0 0 255
-1.111710 0.102239 0.600714 0 0 255
-1.204612 0.106697 0.660235 0 0 255
-1.116870 -0.008064 0.600923 0 0 255
-1.209772 -0.003605 0.660444 0 0 255
25 26 255 0 0
25 27 255 0 0
25 28 255 0 0
25 29 255 0 0
26 27 0 0 0
27 29 255 0 0
29 28 255 0 0
28 26 255 0 0
30 31 0 255 0
30 32 0 255 0
30 33 0 255 0
30 34 0 255 0
31 32 0 0 0
32 34 0 255 0
34 33 0 255 0
33 31 0 255 0
35 36 0 0 255
35 37 0 0 255
35 38 0 0 255
35 39 0 0 255
36 37 0 0 0
37 39 0 0 255
39 38 0 0 255
38 36 0 0 255
