ply
format ascii 1.0
element vertex 37
property float x
property float y
property float z
property uchar red
property uchar green
property uchar blue
element edge 24
property int vertex1
property int vertex2
property uchar red
property uchar green
property uchar blue
end_header
-1.029222 -0.366162 8.366655 1 3 0
-0.385200 0.541754 7.487106 1 3 0
-0.370232 0.479457 7.450159 109 111 108
0.335043 -0.006422 8.572230 23 25 22
0.244954 0.045525 8.591434 117 119 116
0.228663 -0.045327 8.529788 44 46 43
0.106446 0.068469 8.574441 99 101 98
-0.526738 -0.194098 8.369827 65 67 64
-0.114167 -0.028142 8.489407 24 26 23
0.002619 -0.054936 8.475527 38 40 37
-0.166087 -0.260109 8.341882 51 53 50
0.248911 -0.167037 8.455427 138 140 137
-0.048348 -0.284851 8.309298 63 65 62
-0.063219 -0.412727 8.249687 62 64 61
0.317189 -0.402468 8.254600 78 80 77
-0.053361 0.314476 8.712535 143 145 142
0.087542 0.386168 8.753307 84 86 83
0.287639 -0.468275 8.231789 111 113 110
0.022765 0.380079 8.727941 60 62 59
-0.036711 0.430967 8.776841 132 134 131
0.890374 -0.103287 8.504274 17 19 16
0.299555 -0.525891 8.210660 14 16 13
-0.000000 -0.000000 -0.000000 255 0 0
0.417623 0.417623 2.515020 255 0 0
-0.417623 0.417623 2.515020 255 0 0
0.417623 -0.417623 2.515020 255 0 0
-0.417623 -0.417623 2.515020 255 0 0
-0.251219 0.555912 0.792370 0 255 0
0.236811 0.798754 3.317642 0 255 0
-0.597832 0.779243 3.342689 0 255 0
0.254434 -0.034043 3.256191 0 255 0
-0.580209 -0.053554 3.281238 0 255 0
0.522985 4.593774 2.197043 0 0 255
0.761824 3.448915 4.500605 0 0 255
-0.071329 3.465844 4.443977 0 0 255
0.781359 2.772508 4.010983 0 0 255
-0.051794 2.789437 3.954355 0 0 255
22 23 255 0 0
22 24 255 0 0
22 25 255 0 0
22 26 255 0 0
23 24 0 0 0
24 26 255 0 0
26 25 255 0 0
25 23 255 0 0
27 28 0 255 0
27 29 0 255 0
27 30 0 255 0
27 31 0 255 0
28 29 0 0 0
29 31 0 255 0
31 30 0 255 0
30 28 0 255 0
32 33 0 0 255
32 34 0 0 255
32 35 0 0 255
32 36 0 0 255
33 34 0 0 0
34 36 0 0 255
36 35 0 0 255
35 33 0 0 255
