ply
format ascii 1.0
element vertex 58
property float x
property float y
property float z
property uchar red
property uchar green
property uchar blue
element edge 24
property int vertex1
property int vertex2
property uchar red
property uchar green
property uchar blue
end_header
-0.147672 -0.078248 7.131329 2 4 1
0.004435 0.017174 7.195822 11 13 10
0.104537 0.003210 7.130081 3 5 2
0.107168 -0.130617 7.222931 6 8 5
-0.020651 -0.011379 7.194691 111 113 110
-0.001697 -0.095904 7.176963 0 2 0
0.033123 0.066942 7.158724 30 32 29
-0.026359 -0.102522 7.170344 6 8 5
0.016902 -0.062465 7.174946 3 5 2
-0.008110 -0.065775 7.174548 3 5 2
-0.007804 0.078555 7.195901 112 114 111
-0.113903 -0.087384 7.148787 202 204 201
0.088229 -0.008919 7.128213 4 6 3
-0.049240 -0.086211 7.164789 7 9 6
0.004497 0.099404 7.196788 2 4 1
-0.013083 0.051610 7.193386 215 217 214
-0.133103 -0.045311 7.146214 90 92 89
0.026155 0.024739 7.160480 117 119 116
0.033716 0.112557 7.199834 7 9 6
0.069264 -0.009000 7.118303 3 5 2
0.029298 0.090302 7.222527 24 26 23
-0.018606 0.018699 7.188937 91 93 90
-0.036792 0.047808 7.185625 179 181 178
-0.028024 -0.046647 7.184139 121 123 120
-0.017780 0.098844 7.191517 179 181 178
-0.023891 -0.093822 7.172347 0 2 0
0.055832 0.066555 7.190068 185 187 184
0.074922 0.014075 7.128331 1 3 0
0.010339 0.052218 7.198903 10 12 9
0.071388 0.099065 7.226406 160 162 159
-0.059133 -0.059931 7.165769 35 37 34
-0.030118 0.088335 7.176974 65 67 64
-0.048539 -0.102652 7.152302 125 127 124
0.072762 -0.127989 7.204728 2 4 1
-0.005030 0.006719 7.190888 118 120 117
-0.039797 0.003833 7.170034 2 4 1
-0.021793 -0.110059 7.180276 3 5 2
-0.014236 0.120128 7.198081 3 5 2
0.010452 0.113046 7.186715 10 12 9
0.025543 0.008818 7.159864 2 4 1
0.095901 0.098435 7.213617 1 3 0
-0.043282 0.121187 7.182946 2 4 1
-0.062603 0.130300 7.165718 2 4 1
-0.000000 -0.000000 -0.000000 255 0 0
0.096892 0.096892 2.153161 255 0 0
-0.096892 0.096892 2.153161 255 0 0
0.096892 -0.096892 2.153161 255 0 0
-0.096892 -0.096892 2.153161 255 0 0
-0.747042 -0.121451 0.653588 0 255 0
-0.406705 0.015273 2.779701 0 255 0
-0.599239 0.015404 2.801681 0 255 0
-0.406428 -0.178478 2.783285 0 255 0
-0.598962 -0.178347 2.805265 0 255 0
-1.396624 -0.010599 1.255605 0 0 255
-0.808499 0.090354 3.328959 0 0 255
-0.997113 0.089985 3.373423 0 0 255
-0.808060 -0.103430 3.329214 0 0 255
-0.996674 -0.103799 3.373678 0 0 255
43 44 255 0 0
43 45 255 0 0
43 46 255 0 0
43 47 255 0 0
44 45 0 0 0
45 47 255 0 0
47 46 255 0 0
46 44 255 0 0
48 49 0 255 0
48 50 0 255 0
48 51 0 255 0
48 52 0 255 0
49 50 0 0 0
50 52 0 255 0
52 51 0 255 0
51 49 0 255 0
53 54 0 0 255
53 55 0 0 255
53 56 0 0 255
53 57 0 0 255
54 55 0 0 0
55 57 0 0 255
57 56 0 0 255
56 54 0 0 255
