ply
format ascii 1.0
element vertex 58
property float x
property float y
property float z
property uchar red
property uchar green
property uchar blue
element edge 24
property int vertex1
property int vertex2
property uchar red
property uchar green
property uchar blue
end_header
-0.144305 -0.076464 7.058399 2 4 1
0.004334 0.016782 6.995376 11 13 10
0.102153 0.003137 7.059619 3 5 2
0.104725 -0.127639 6.968885 6 8 5
-0.020180 -0.011120 6.996481 111 113 110
-0.001659 -0.093717 7.013805 0 2 0
0.032368 0.065416 7.031628 30 32 29
-0.025758 -0.100185 7.020273 6 8 5
0.016516 -0.061041 7.015777 3 5 2
-0.007925 -0.064275 7.016165 3 5 2
-0.007626 0.076764 6.995299 112 114 111
-0.111306 -0.085392 7.041339 202 204 201
0.086217 -0.008716 7.061444 4 6 3
-0.048118 -0.084245 7.025702 7 9 6
0.004394 0.097138 6.994432 2 4 1
-0.012785 0.050434 6.997757 215 217 214
-0.130068 -0.044278 7.043853 90 92 89
0.025558 0.024175 7.029912 117 119 116
0.032948 0.109991 6.991456 7 9 6
0.067685 -0.008794 7.071128 3 5 2
0.028630 0.088243 6.969280 24 26 23
-0.018182 0.018273 7.002104 91 93 90
-0.035953 0.046718 7.005340 179 181 178
-0.027385 -0.045583 7.006793 121 123 120
-0.017375 0.096591 6.999583 179 181 178
-0.023346 -0.091683 7.018316 0 2 0
0.054560 0.065038 7.000999 185 187 184
0.073214 0.013754 7.061328 1 3 0
0.010103 0.051028 6.992366 10 12 9
0.069760 0.096806 6.965489 160 162 159
-0.057785 -0.058564 7.024744 35 37 34
-0.029431 0.086321 7.013794 65 67 64
-0.047432 -0.100312 7.037904 125 127 124
0.071103 -0.125071 6.986673 2 4 1
-0.004916 0.006566 7.000197 118 120 117
-0.038889 0.003745 7.020577 2 4 1
-0.021296 -0.107549 7.010568 3 5 2
-0.013911 0.117389 6.993169 3 5 2
0.010214 0.110468 7.004275 10 12 9
0.024960 0.008617 7.030514 2 4 1
0.093714 0.096190 6.977986 1 3 0
-0.042295 0.118424 7.007959 2 4 1
-0.061175 0.127329 7.024794 2 4 1
-0.000000 -0.000000 -0.000000 255 0 0
0.094683 0.094683 2.104071 255 0 0
-0.094683 0.094683 2.104071 255 0 0
0.094683 -0.094683 2.104071 255 0 0
-0.094683 -0.094683 2.104071 255 0 0
0.755159 0.116904 0.645034 0 255 0
0.600644 0.173381 2.746933 0 255 0
0.412602 0.173417 2.724578 0 255 0
0.601014 -0.015955 2.743517 0 255 0
0.412971 -0.015918 2.721162 0 255 0
1.358873 -0.026569 1.224545 0 0 255
0.969961 0.077977 3.294052 0 0 255
0.785608 0.077477 3.250769 0 0 255
0.970249 -0.111387 3.295009 0 0 255
0.785897 -0.111887 3.251726 0 0 255
43 44 255 0 0
43 45 255 0 0
43 46 255 0 0
43 47 255 0 0
44 45 0 0 0
45 47 255 0 0
47 46 255 0 0
46 44 255 0 0
48 49 0 255 0
48 50 0 255 0
48 51 0 255 0
48 52 0 255 0
49 50 0 0 0
50 52 0 255 0
52 51 0 255 0
51 49 0 255 0
53 54 0 0 255
53 55 0 0 255
53 56 0 0 255
53 57 0 0 255
54 55 0 0 0
55 57 0 0 255
57 56 0 0 255
56 54 0 0 255
