ply
format ascii 1.0
element vertex 92
property float x
property float y
property float z
property uchar red
property uchar green
property uchar blue
element edge 24
property int vertex1
property int vertex2
property uchar red
property uchar green
property uchar blue
end_header
-0.302443 -0.029047 10.906560 1 1 1
0.003481 -0.180440 10.858257 0 1 1
0.035086 0.501977 10.810813 39 39 40
0.258956 0.377891 10.428547 47 47 47
0.019551 -0.064534 10.850382 151 151 151
0.245448 0.520247 10.430900 9 8 9
-0.088777 0.136659 10.875111 114 114 114
-0.007634 -0.211260 10.812733 16 16 16
-0.302191 -0.079753 10.932051 35 35 36
-0.177246 -0.334133 11.229840 50 50 50
-0.121447 -0.099732 10.689918 20 20 21
-0.055893 0.208837 10.873304 18 18 19
-0.229647 0.466949 11.261779 28 28 28
-0.144925 0.392351 11.066306 10 10 10
-0.258377 0.246620 11.161143 25 26 26
-0.080686 -0.126083 10.662376 30 30 30
0.066530 -0.330988 10.772828 91 91 91
-0.009824 -0.235300 10.800203 68 68 68
0.057556 -0.069202 10.761155 19 19 19
-0.046778 0.425921 10.881305 43 43 43
-0.135283 0.251760 11.067973 21 21 21
0.311997 -0.386344 10.407162 65 65 65
-0.271777 0.381265 11.189435 49 49 49
-0.162138 -0.105814 10.654623 37 37 37
-0.263912 -0.039085 10.865931 25 25 25
0.055271 -0.019395 10.747858 82 82 82
-0.074512 -0.371804 11.079783 55 55 55
-0.136708 -0.438657 11.242276 74 75 75
0.003119 -0.100485 10.833190 53 53 54
0.232957 0.340966 10.412084 90 91 91
-0.087694 -0.011563 10.804201 75 75 75
-0.093004 -0.094412 10.681614 65 65 65
-0.060819 0.057904 10.864996 30 30 30
-0.120823 -0.053016 10.574662 88 88 89
-0.033283 -0.070750 10.842547 91 91 91
-0.154743 -0.125444 10.641019 64 64 64
0.040175 -0.453117 10.851468 66 67 66
0.301564 -0.244746 10.395562 58 58 58
-0.208724 0.322073 11.227634 82 83 82
0.059018 -0.178970 10.721710 83 83 83
-0.055263 -0.130274 10.676930 76 76 76
-0.310209 0.029959 10.932049 99 99 100
0.004799 0.136247 10.837503 44 44 44
-0.139515 -0.156096 10.600190 75 75 75
-0.041401 0.108593 10.868806 82 82 82
-0.200208 -0.376160 11.190752 63 63 63
-0.078970 0.110079 10.881798 102 103 103
-0.249971 0.425831 11.222184 88 88 88
0.075453 0.124328 10.912285 85 85 85
0.203780 0.301448 10.410666 91 91 91
-0.203893 -0.153020 10.631410 119 120 119
0.147763 0.425813 10.603535 63 62 63
0.029180 0.191408 10.789603 109 110 109
-0.021789 0.028122 10.810782 26 26 26
-0.008739 0.448448 10.836332 76 76 76
-0.002857 0.192879 10.825966 75 75 75
-0.228480 0.128201 10.673729 75 75 75
0.075627 0.200629 10.935643 49 49 49
-0.125260 0.043906 10.546861 139 139 139
0.203281 -0.340041 10.556426 123 123 123
0.051447 0.237130 10.754961 180 180 181
-0.007614 0.171397 10.839994 114 114 114
0.024472 0.472730 10.823190 140 141 141
-0.163219 -0.475647 11.230873 77 76 77
-0.050609 0.133441 10.856311 164 165 165
0.090540 0.036006 10.892526 66 66 66
0.112229 0.018043 10.910156 86 86 87
-0.026226 0.236421 10.870181 52 51 52
-0.118380 -0.193783 10.597634 57 57 57
0.164372 -0.012575 10.890317 45 45 45
0.077749 0.031624 10.908762 23 23 23
0.213136 -0.483305 10.565272 48 47 47
0.057825 0.360949 10.685972 37 37 37
-0.339309 -0.143241 10.968842 13 13 13
-0.154766 -0.295619 11.291453 22 22 22
-0.383693 -0.138397 11.007733 17 17 17
0.118545 0.104912 10.859565 21 21 21
-0.000000 -0.000000 -0.000000 255 0 0
0.243663 0.243663 3.248838 255 0 0
-0.243663 0.243663 3.248838 255 0 0
0.243663 -0.243663 3.248838 255 0 0
-0.243663 -0.243663 3.248838 255 0 0
0.818281 0.054580 0.572222 0 255 0
0.802614 0.281548 3.831352 0 255 0
0.316826 0.279835 3.792702 0 255 0
0.804530 -0.205768 3.828864 0 255 0
0.318742 -0.207480 3.790214 0 255 0
1.902200 0.095111 1.169403 0 0 255
1.512841 0.308049 4.406183 0 0 255
1.034687 0.306242 4.312098 0 0 255
1.515529 -0.179250 4.401879 0 0 255
1.037375 -0.181057 4.307794 0 0 255
77 78 255 0 0
77 79 255 0 0
77 80 255 0 0
77 81 255 0 0
78 79 0 0 0
79 81 255 0 0
81 80 255 0 0
80 78 255 0 0
82 83 0 255 0
82 84 0 255 0
82 85 0 255 0
82 86 0 255 0
83 84 0 0 0
84 86 0 255 0
86 85 0 255 0
85 83 0 255 0
87 88 0 0 255
87 89 0 0 255
87 90 0 0 255
87 91 0 0 255
88 89 0 0 0
89 91 0 0 255
91 90 0 0 255
90 88 0 0 255
