ply
format ascii 1.0
element vertex 58
property float x
property float y
property float z
property uchar red
property uchar green
property uchar blue
element edge 24
property int vertex1
property int vertex2
property uchar red
property uchar green
property uchar blue
end_header
-0.108028 -0.082877 7.041595 2 4 1
-0.024999 -0.097235 7.021149 11 13 10
0.004207 0.016288 6.996985 3 5 2
0.024225 0.008363 7.031089 6 8 5
-0.007691 -0.062382 7.017162 111 113 110
0.016030 -0.059243 7.016785 0 2 0
-0.016863 0.093746 7.001069 30 32 29
-0.019586 -0.010792 6.998058 6 8 5
0.004265 0.094277 6.996069 3 5 2
-0.001610 -0.090958 7.014871 3 5 2
-0.022659 -0.088983 7.019250 112 114 111
-0.012408 0.048948 6.999296 202 204 201
-0.004771 0.006373 7.001664 4 6 3
-0.046701 -0.081764 7.026418 7 9 6
-0.007402 0.074503 6.996911 2 4 1
0.031977 0.106752 6.993180 215 217 214
-0.126238 -0.042974 7.044034 90 92 89
-0.034894 0.045342 7.006656 117 119 116
0.024806 0.023464 7.030504 7 9 6
-0.028564 0.083779 7.014861 3 5 2
-0.037744 0.003635 7.021444 24 26 23
-0.046035 -0.097358 7.038261 91 93 90
0.069009 -0.121388 6.988539 179 181 178
0.052953 0.063123 7.002443 121 123 120
-0.026578 -0.044241 7.008066 179 181 178
-0.140056 -0.074212 7.058152 0 2 0
-0.041050 0.114937 7.009197 185 187 184
0.009806 0.049525 6.994063 1 3 0
-0.017647 0.017735 7.003515 10 12 9
-0.020669 -0.104382 7.011730 160 162 159
0.101641 -0.123880 6.971275 35 37 34
0.027787 0.085644 6.971658 65 67 64
0.090954 0.093358 6.980108 125 127 124
-0.056083 -0.056840 7.025488 2 4 1
0.067706 0.093955 6.967978 118 120 117
0.009913 0.107215 7.005622 2 4 1
0.031415 0.063489 7.032170 3 5 2
-0.059374 0.123579 7.025537 3 5 2
0.071058 0.013349 7.060995 10 12 9
0.099145 0.003044 7.059336 2 4 1
0.065692 -0.008535 7.070506 1 3 0
0.083678 -0.008459 7.061107 2 4 1
-0.013501 0.113932 6.994843 2 4 1
-0.000000 -0.000000 -0.000000 255 0 0
0.091895 0.091895 2.104393 255 0 0
-0.091895 0.091895 2.104393 255 0 0
0.091895 -0.091895 2.104393 255 0 0
-0.091895 -0.091895 2.104393 255 0 0
0.755080 0.117005 0.645108 0 255 0
0.597846 0.170655 2.746954 0 255 0
0.415341 0.170691 2.725265 0 255 0
0.598204 -0.013105 2.743636 0 255 0
0.415698 -0.013068 2.721947 0 255 0
1.359267 -0.025967 1.224849 0 0 255
0.967500 0.075562 3.294044 0 0 255
0.788577 0.075079 3.252030 0 0 255
0.967782 -0.108225 3.294953 0 0 255
0.788860 -0.108708 3.252939 0 0 255
43 44 255 0 0
43 45 255 0 0
43 46 255 0 0
43 47 255 0 0
44 45 0 0 0
45 47 255 0 0
47 46 255 0 0
46 44 255 0 0
48 49 0 255 0
48 50 0 255 0
48 51 0 255 0
48 52 0 255 0
49 50 0 0 0
50 52 0 255 0
52 51 0 255 0
51 49 0 255 0
53 54 0 0 255
53 55 0 0 255
53 56 0 0 255
53 57 0 0 255
54 55 0 0 0
55 57 0 0 255
57 56 0 0 255
56 54 0 0 255
