ply
format ascii 1.0
element vertex 58
property float x
property float y
property float z
property uchar red
property uchar green
property uchar blue
element edge 24
property int vertex1
property int vertex2
property uchar red
property uchar green
property uchar blue
end_header
-0.110471 -0.084752 7.145713 2 4 1
-0.025564 -0.099434 7.166621 11 13 10
0.004302 0.016657 7.191332 3 5 2
0.024773 0.008552 7.156457 6 8 5
-0.007865 -0.063793 7.170699 111 113 110
0.016393 -0.060583 7.171084 0 2 0
-0.017244 0.095866 7.187156 30 32 29
-0.020029 -0.011037 7.190235 6 8 5
0.004361 0.096409 7.192268 3 5 2
-0.001646 -0.093015 7.173041 3 5 2
-0.023171 -0.090995 7.168564 112 114 111
-0.012689 0.050055 7.188969 202 204 201
-0.004879 0.006517 7.186547 4 6 3
-0.047757 -0.083613 7.161234 7 9 6
-0.007569 0.076188 7.191408 2 4 1
0.032700 0.109166 7.195223 215 217 214
-0.129093 -0.043946 7.143219 90 92 89
-0.035683 0.046368 7.181442 117 119 116
0.025367 0.023994 7.157055 7 9 6
-0.029210 0.085674 7.173052 3 5 2
-0.038598 0.003717 7.166320 24 26 23
-0.047076 -0.099559 7.149122 91 93 90
0.070570 -0.124133 7.199969 179 181 178
0.054150 0.064550 7.185751 121 123 120
-0.027179 -0.045242 7.180000 179 181 178
-0.143223 -0.075891 7.128782 0 2 0
-0.041978 0.117536 7.178844 185 187 184
0.010027 0.050645 7.194320 1 3 0
-0.018046 0.018136 7.184654 10 12 9
-0.021137 -0.106743 7.176254 160 162 159
0.103939 -0.126681 7.217624 35 37 34
0.028415 0.087581 7.217232 65 67 64
0.093011 0.095469 7.208591 125 127 124
-0.057351 -0.058125 7.162184 2 4 1
0.069237 0.096080 7.220995 118 120 117
0.010137 0.109640 7.182499 2 4 1
0.032125 0.064925 7.155352 3 5 2
-0.060716 0.126374 7.162134 3 5 2
0.072665 0.013651 7.125874 10 12 9
0.101387 0.003113 7.127571 2 4 1
0.067177 -0.008728 7.116148 1 3 0
0.085571 -0.008651 7.125760 2 4 1
-0.013807 0.116509 7.193522 2 4 1
-0.000000 -0.000000 -0.000000 255 0 0
0.093973 0.093973 2.151982 255 0 0
-0.093973 0.093973 2.151982 255 0 0
0.093973 -0.093973 2.151982 255 0 0
-0.093973 -0.093973 2.151982 255 0 0
-0.747212 -0.121424 0.653400 0 255 0
-0.409691 0.012374 2.778692 0 255 0
-0.596422 0.012500 2.800029 0 255 0
-0.409420 -0.175540 2.782169 0 255 0
-0.596151 -0.175414 2.803506 0 255 0
-1.395880 -0.010103 1.254968 0 0 255
-0.810841 0.087748 3.327852 0 0 255
-0.993772 0.087388 3.370978 0 0 255
-0.810416 -0.100197 3.328083 0 0 255
-0.993347 -0.100557 3.371209 0 0 255
43 44 255 0 0
43 45 255 0 0
43 46 255 0 0
43 47 255 0 0
44 45 0 0 0
45 47 255 0 0
47 46 255 0 0
46 44 255 0 0
48 49 0 255 0
48 50 0 255 0
48 51 0 255 0
48 52 0 255 0
49 50 0 0 0
50 52 0 255 0
52 51 0 255 0
51 49 0 255 0
53 54 0 0 255
53 55 0 0 255
53 56 0 0 255
53 57 0 0 255
54 55 0 0 0
55 57 0 0 255
57 56 0 0 255
56 54 0 0 255
