ply
format ascii 1.0
element vertex 27
property float x
property float y
property float z
property uchar red
property uchar green
property uchar blue
element edge 24
property int vertex1
property int vertex2
property uchar red
property uchar green
property uchar blue
end_header
-0.008263 -0.040073 5.049803 17 19 16
0.006582 0.001560 5.062715 31 33 30
0.014134 -0.065282 5.096506 20 22 19
0.039915 -0.024104 5.019087 4 6 3
-0.015692 -0.001449 5.060175 17 19 16
-0.022862 -0.022726 5.057557 186 188 185
0.012978 -0.080817 5.101189 44 46 43
-0.017946 -0.007322 5.061760 40 42 39
-0.004922 0.053916 5.059532 147 149 146
-0.010075 0.038223 5.063017 3 5 2
-0.020921 -0.058883 5.053204 125 127 124
-0.001172 0.066971 5.054469 5 7 4
-0.000000 -0.000000 -0.000000 255 0 0
0.066309 0.066309 1.518475 255 0 0
-0.066309 0.066309 1.518475 255 0 0
0.066309 -0.066309 1.518475 255 0 0
-0.066309 -0.066309 1.518475 255 0 0
-0.781622 0.011464 0.623647 0 255 0
-0.452729 0.074631 2.107695 0 255 0
-0.583320 0.073444 2.130762 0 255 0
-0.451617 -0.057981 2.107168 0 255 0
-0.582208 -0.059168 2.130234 0 255 0
-1.565868 0.040856 1.378211 0 0 255
-0.908752 0.092046 2.749393 0 0 255
-1.030720 0.091301 2.801458 0 0 255
-0.908598 -0.040563 2.747857 0 0 255
-1.030566 -0.041308 2.799922 0 0 255
12 13 255 0 0
12 14 255 0 0
12 15 255 0 0
12 16 255 0 0
13 14 0 0 0
14 16 255 0 0
16 15 255 0 0
15 13 255 0 0
17 18 0 255 0
17 19 0 255 0
17 20 0 255 0
17 21 0 255 0
18 19 0 0 0
19 21 0 255 0
21 20 0 255 0
20 18 0 255 0
22 23 0 0 255
22 24 0 0 255
22 25 0 0 255
22 26 0 0 255
23 24 0 0 0
24 26 0 0 255
26 25 0 0 255
25 23 0 0 255
