ply
format ascii 1.0
element vertex 27
property float x
property float y
property float z
property uchar red
property uchar green
property uchar blue
element edge 24
property int vertex1
property int vertex2
property uchar red
property uchar green
property uchar blue
end_header
-0.007902 -0.038323 4.851855 17 19 16
0.006295 0.001492 4.839506 31 33 30
0.013517 -0.062432 4.807191 20 22 19
0.038172 -0.023052 4.881229 4 6 3
-0.015006 -0.001385 4.841935 17 19 16
-0.021864 -0.021734 4.844439 186 188 185
0.012411 -0.077289 4.802712 44 46 43
-0.017163 -0.007003 4.840419 40 42 39
-0.004707 0.051562 4.842551 147 149 146
-0.009635 0.036554 4.839218 3 5 2
-0.020007 -0.056312 4.848602 125 127 124
-0.001120 0.064047 4.847392 5 7 4
-0.000000 -0.000000 -0.000000 255 0 0
0.063414 0.063414 1.452176 255 0 0
-0.063414 0.063414 1.452176 255 0 0
0.063414 -0.063414 1.452176 255 0 0
-0.063414 -0.063414 1.452176 255 0 0
0.780291 -0.130059 0.611744 0 255 0
0.579910 -0.022257 2.048785 0 255 0
0.455174 -0.023174 2.025864 0 255 0
0.580117 -0.149024 2.052727 0 255 0
0.455381 -0.149940 2.029806 0 255 0
1.499931 -0.161904 1.333704 0 0 255
0.990578 -0.036762 2.690818 0 0 255
0.873883 -0.037323 2.641146 0 0 255
0.988990 -0.163474 2.695980 0 0 255
0.872295 -0.164036 2.646308 0 0 255
12 13 255 0 0
12 14 255 0 0
12 15 255 0 0
12 16 255 0 0
13 14 0 0 0
14 16 255 0 0
16 15 255 0 0
15 13 255 0 0
17 18 0 255 0
17 19 0 255 0
17 20 0 255 0
17 21 0 255 0
18 19 0 0 0
19 21 0 255 0
21 20 0 255 0
20 18 0 255 0
22 23 0 0 255
22 24 0 0 255
22 25 0 0 255
22 26 0 0 255
23 24 0 0 0
24 26 0 0 255
26 25 0 0 255
25 23 0 0 255
