ply
format ascii 1.0
element vertex 21
property float x
property float y
property float z
property uchar red
property uchar green
property uchar blue
element edge 24
property int vertex1
property int vertex2
property uchar red
property uchar green
property uchar blue
end_header
-0.019801 -0.007976 3.788789 44 44 44
-0.004900 0.035744 3.774134 46 46 46
0.057898 0.009185 3.764572 107 107 107
0.067817 -0.007693 3.750234 106 106 106
0.016804 0.016319 3.779489 0 0 0
-0.018737 -0.000284 3.789899 0 0 0
-0.000000 -0.000000 -0.000000 255 0 0
0.050956 0.050956 1.132356 255 0 0
-0.050956 0.050956 1.132356 255 0 0
0.050956 -0.050956 1.132356 255 0 0
-0.050956 -0.050956 1.132356 255 0 0
-0.829425 0.437889 0.346854 0 255 0
-0.507194 0.347615 1.431031 0 255 0
-0.605909 0.352110 1.455955 0 255 0
-0.514575 0.246569 1.420021 0 255 0
-0.613290 0.251064 1.444945 0 255 0
-4.623643 0.477443 1.224990 0 0 255
-3.607871 0.425324 1.727896 0 0 255
-3.657025 0.428013 1.817130 0 0 255
-3.617169 0.323857 1.725833 0 0 255
-3.666323 0.326547 1.815067 0 0 255
6 7 255 0 0
6 8 255 0 0
6 9 255 0 0
6 10 255 0 0
7 8 0 0 0
8 10 255 0 0
10 9 255 0 0
9 7 255 0 0
11 12 0 255 0
11 13 0 255 0
11 14 0 255 0
11 15 0 255 0
12 13 0 0 0
13 15 0 255 0
15 14 0 255 0
14 12 0 255 0
16 17 0 0 255
16 18 0 0 255
16 19 0 0 255
16 20 0 0 255
17 18 0 0 0
18 20 0 0 255
20 19 0 0 255
19 17 0 0 255
