ply
format ascii 1.0
element vertex 21
property float x
property float y
property float z
property uchar red
property uchar green
property uchar blue
element edge 24
property int vertex1
property int vertex2
property uchar red
property uchar green
property uchar blue
end_header
-0.029151 -0.029350 6.795407 131 133 130
-0.012269 0.053806 6.790560 36 38 35
0.000787 -0.010835 6.788216 42 44 41
0.015733 0.014225 6.809822 3 5 2
-0.032368 -0.044736 6.796178 139 141 138
-0.040000 -0.063893 6.793766 91 93 90
-0.000000 -0.000000 -0.000000 255 0 0
0.089026 0.089026 2.038697 255 0 0
-0.089026 0.089026 2.038697 255 0 0
0.089026 -0.089026 2.038697 255 0 0
-0.089026 -0.089026 2.038697 255 0 0
0.543553 0.199585 0.815301 0 255 0
0.449446 0.219055 2.855620 0 255 0
0.272138 0.222052 2.839645 0 255 0
0.446995 0.041127 2.849436 0 255 0
0.269687 0.044125 2.833460 0 255 0
1.873019 -0.565548 1.888541 0 0 255
1.238092 -0.258893 3.805562 0 0 255
1.071692 -0.259063 3.742208 0 0 255
1.231473 -0.435924 3.823420 0 0 255
1.065074 -0.436094 3.760066 0 0 255
6 7 255 0 0
6 8 255 0 0
6 9 255 0 0
6 10 255 0 0
7 8 0 0 0
8 10 255 0 0
10 9 255 0 0
9 7 255 0 0
11 12 0 255 0
11 13 0 255 0
11 14 0 255 0
11 15 0 255 0
12 13 0 0 0
13 15 0 255 0
15 14 0 255 0
14 12 0 255 0
16 17 0 0 255
16 18 0 0 255
16 19 0 0 255
16 20 0 0 255
17 18 0 0 0
18 20 0 0 255
20 19 0 0 255
19 17 0 0 255
